<svg width="39" height="39" viewBox="0 0 39 39" fill="none" xmlns="http://www.w3.org/2000/svg">
<path d="M3.45833 16.6574L10.4583 9.65737C10.8472 9.26848 11.3056 8.9907 11.8333 8.82404C12.3611 8.65737 12.9028 8.62959 13.4583 8.7407L15.625 9.19904C14.125 10.9768 12.9444 12.5879 12.0833 14.0324C11.2222 15.4768 10.3889 17.2268 9.58333 19.2824L3.45833 16.6574ZM12 20.449C12.6389 18.449 13.5069 16.5601 14.6042 14.7824C15.7014 13.0046 17.0278 11.3379 18.5833 9.78237C21.0278 7.33792 23.8194 5.51154 26.9583 4.3032C30.0972 3.09487 33.0278 2.72681 35.75 3.19904C36.2222 5.92126 35.8611 8.85181 34.6667 11.9907C33.4722 15.1296 31.6528 17.9213 29.2083 20.3657C27.6806 21.8935 26.0139 23.2199 24.2083 24.3449C22.4028 25.4699 20.5 26.3518 18.5 26.9907L12 20.449ZM23.5 15.449C24.1389 16.0879 24.9236 16.4074 25.8542 16.4074C26.7847 16.4074 27.5694 16.0879 28.2083 15.449C28.8472 14.8101 29.1667 14.0254 29.1667 13.0949C29.1667 12.1643 28.8472 11.3796 28.2083 10.7407C27.5694 10.1018 26.7847 9.78237 25.8542 9.78237C24.9236 9.78237 24.1389 10.1018 23.5 10.7407C22.8611 11.3796 22.5417 12.1643 22.5417 13.0949C22.5417 14.0254 22.8611 14.8101 23.5 15.449ZM22.3333 35.4907L19.6667 29.3657C21.7222 28.5601 23.4792 27.7268 24.9375 26.8657C26.3958 26.0046 28.0139 24.824 29.7917 23.324L30.2083 25.4907C30.3194 26.0463 30.2917 26.5949 30.125 27.1365C29.9583 27.6782 29.6806 28.1435 29.2917 28.5324L22.3333 35.4907ZM6.125 25.7824C7.09722 24.8101 8.27778 24.3171 9.66667 24.3032C11.0556 24.2893 12.2361 24.7685 13.2083 25.7407C14.1806 26.7129 14.6667 27.8935 14.6667 29.2824C14.6667 30.6713 14.1806 31.8518 13.2083 32.824C12.5139 33.5185 11.3542 34.1157 9.72917 34.6157C8.10417 35.1157 5.86111 35.5601 3 35.949C3.38889 33.0879 3.83333 30.8518 4.33333 29.2407C4.83333 27.6296 5.43056 26.4768 6.125 25.7824Z" fill="#E8EAED"/>
</svg>
