<svg width="41" height="40" viewBox="0 0 41 40" fill="none" xmlns="http://www.w3.org/2000/svg">
<path d="M20.1416 23C19.6694 23 19.2735 22.8403 18.9541 22.5208C18.6347 22.2014 18.4749 21.8056 18.4749 21.3333C18.4749 20.8611 18.6347 20.4653 18.9541 20.1458C19.2735 19.8264 19.6694 19.6667 20.1416 19.6667C20.6138 19.6667 21.0097 19.8264 21.3291 20.1458C21.6485 20.4653 21.8083 20.8611 21.8083 21.3333C21.8083 21.8056 21.6485 22.2014 21.3291 22.5208C21.0097 22.8403 20.6138 23 20.1416 23ZM13.4749 23C13.0027 23 12.6069 22.8403 12.2874 22.5208C11.968 22.2014 11.8083 21.8056 11.8083 21.3333C11.8083 20.8611 11.968 20.4653 12.2874 20.1458C12.6069 19.8264 13.0027 19.6667 13.4749 19.6667C13.9472 19.6667 14.343 19.8264 14.6624 20.1458C14.9819 20.4653 15.1416 20.8611 15.1416 21.3333C15.1416 21.8056 14.9819 22.2014 14.6624 22.5208C14.343 22.8403 13.9472 23 13.4749 23ZM26.8083 23C26.336 23 25.9402 22.8403 25.6208 22.5208C25.3013 22.2014 25.1416 21.8056 25.1416 21.3333C25.1416 20.8611 25.3013 20.4653 25.6208 20.1458C25.9402 19.8264 26.336 19.6667 26.8083 19.6667C27.2805 19.6667 27.6763 19.8264 27.9958 20.1458C28.3152 20.4653 28.4749 20.8611 28.4749 21.3333C28.4749 21.8056 28.3152 22.2014 27.9958 22.5208C27.6763 22.8403 27.2805 23 26.8083 23ZM20.1416 29.6667C19.6694 29.6667 19.2735 29.5069 18.9541 29.1875C18.6347 28.8681 18.4749 28.4722 18.4749 28C18.4749 27.5278 18.6347 27.1319 18.9541 26.8125C19.2735 26.4931 19.6694 26.3333 20.1416 26.3333C20.6138 26.3333 21.0097 26.4931 21.3291 26.8125C21.6485 27.1319 21.8083 27.5278 21.8083 28C21.8083 28.4722 21.6485 28.8681 21.3291 29.1875C21.0097 29.5069 20.6138 29.6667 20.1416 29.6667ZM13.4749 29.6667C13.0027 29.6667 12.6069 29.5069 12.2874 29.1875C11.968 28.8681 11.8083 28.4722 11.8083 28C11.8083 27.5278 11.968 27.1319 12.2874 26.8125C12.6069 26.4931 13.0027 26.3333 13.4749 26.3333C13.9472 26.3333 14.343 26.4931 14.6624 26.8125C14.9819 27.1319 15.1416 27.5278 15.1416 28C15.1416 28.4722 14.9819 28.8681 14.6624 29.1875C14.343 29.5069 13.9472 29.6667 13.4749 29.6667ZM26.8083 29.6667C26.336 29.6667 25.9402 29.5069 25.6208 29.1875C25.3013 28.8681 25.1416 28.4722 25.1416 28C25.1416 27.5278 25.3013 27.1319 25.6208 26.8125C25.9402 26.4931 26.336 26.3333 26.8083 26.3333C27.2805 26.3333 27.6763 26.4931 27.9958 26.8125C28.3152 27.1319 28.4749 27.5278 28.4749 28C28.4749 28.4722 28.3152 28.8681 27.9958 29.1875C27.6763 29.5069 27.2805 29.6667 26.8083 29.6667ZM8.47493 36.3333C7.55827 36.3333 6.77355 36.0069 6.12077 35.3542C5.46799 34.7014 5.1416 33.9167 5.1416 33V9.66667C5.1416 8.75 5.46799 7.96528 6.12077 7.3125C6.77355 6.65972 7.55827 6.33333 8.47493 6.33333H10.1416V3H13.4749V6.33333H26.8083V3H30.1416V6.33333H31.8083C32.7249 6.33333 33.5097 6.65972 34.1624 7.3125C34.8152 7.96528 35.1416 8.75 35.1416 9.66667V33C35.1416 33.9167 34.8152 34.7014 34.1624 35.3542C33.5097 36.0069 32.7249 36.3333 31.8083 36.3333H8.47493ZM8.47493 33H31.8083V16.3333H8.47493V33Z" fill="#E8EAED"/>
</svg>
