<svg width="40" height="40" viewBox="0 0 40 40" fill="none" xmlns="http://www.w3.org/2000/svg">
<path d="M25.6416 18C26.336 18 26.9263 17.7569 27.4124 17.2708C27.8985 16.7847 28.1416 16.1944 28.1416 15.5C28.1416 14.8056 27.8985 14.2153 27.4124 13.7292C26.9263 13.2431 26.336 13 25.6416 13C24.9472 13 24.3569 13.2431 23.8708 13.7292C23.3847 14.2153 23.1416 14.8056 23.1416 15.5C23.1416 16.1944 23.3847 16.7847 23.8708 17.2708C24.3569 17.7569 24.9472 18 25.6416 18ZM13.9749 18C14.6694 18 15.2597 17.7569 15.7458 17.2708C16.2319 16.7847 16.4749 16.1944 16.4749 15.5C16.4749 14.8056 16.2319 14.2153 15.7458 13.7292C15.2597 13.2431 14.6694 13 13.9749 13C13.2805 13 12.6902 13.2431 12.2041 13.7292C11.718 14.2153 11.4749 14.8056 11.4749 15.5C11.4749 16.1944 11.718 16.7847 12.2041 17.2708C12.6902 17.7569 13.2805 18 13.9749 18ZM19.8083 28.8333C21.6972 28.8333 23.4124 28.2986 24.9541 27.2292C26.4958 26.1597 27.6138 24.75 28.3083 23H11.3083C12.0027 24.75 13.1208 26.1597 14.6624 27.2292C16.2041 28.2986 17.9194 28.8333 19.8083 28.8333ZM19.8083 36.3333C17.5027 36.3333 15.336 35.8958 13.3083 35.0208C11.2805 34.1458 9.5166 32.9583 8.0166 31.4583C6.5166 29.9583 5.3291 28.1944 4.4541 26.1667C3.5791 24.1389 3.1416 21.9722 3.1416 19.6667C3.1416 17.3611 3.5791 15.1944 4.4541 13.1667C5.3291 11.1389 6.5166 9.375 8.0166 7.875C9.5166 6.375 11.2805 5.1875 13.3083 4.3125C15.336 3.4375 17.5027 3 19.8083 3C22.1138 3 24.2805 3.4375 26.3083 4.3125C28.336 5.1875 30.0999 6.375 31.5999 7.875C33.0999 9.375 34.2874 11.1389 35.1624 13.1667C36.0374 15.1944 36.4749 17.3611 36.4749 19.6667C36.4749 21.9722 36.0374 24.1389 35.1624 26.1667C34.2874 28.1944 33.0999 29.9583 31.5999 31.4583C30.0999 32.9583 28.336 34.1458 26.3083 35.0208C24.2805 35.8958 22.1138 36.3333 19.8083 36.3333Z" fill="#E8EAED"/>
</svg>
