<svg width="151" height="46" viewBox="0 0 151 46" fill="none" xmlns="http://www.w3.org/2000/svg">
<path d="M23.94 32.352C24.016 32.6053 24.054 32.846 24.054 33.074C24.054 33.4793 23.9273 33.8087 23.674 34.062C23.446 34.29 23.1293 34.404 22.724 34.404C22.572 34.404 22.4453 34.3913 22.344 34.366C21.204 34.1127 20.3047 33.834 19.646 33.53C19.1393 33.302 18.202 32.732 16.834 31.82C15.7953 31.136 14.934 30.604 14.25 30.224C13.3633 29.7427 12.4133 29.4133 11.4 29.236C10.944 29.16 9.86733 29.0333 8.17 28.856C7.41 28.8053 6.85267 28.7547 6.498 28.704L5.814 34.328L5.852 34.936C5.852 35.848 5.738 36.456 5.51 36.76C5.30733 37.064 4.87667 37.216 4.218 37.216C3.534 37.216 2.93867 37.0007 2.432 36.57C1.92533 36.1393 1.672 35.6073 1.672 34.974C1.672 33.0487 1.77333 31.3387 1.976 29.844C2.68533 25.2587 4.31933 20.496 6.878 15.556C8.322 12.7947 10.5387 10.6667 13.528 9.172C14.4907 8.69067 15.466 8.45 16.454 8.45C17.4673 8.45 18.4047 8.716 19.266 9.248C20.1527 9.75467 20.8873 10.502 21.47 11.49C22.002 12.3767 22.268 13.238 22.268 14.074C22.268 15.2393 21.812 16.4173 20.9 17.608C19.8107 19.0267 18.2653 21.0407 16.264 23.65L13.794 26.842C13.8193 26.842 13.8447 26.88 13.87 26.956C13.9207 27.0067 13.9713 27.0573 14.022 27.108L14.858 27.564C16.9607 28.704 18.506 29.6033 19.494 30.262C20.4567 30.8447 21.4827 31.136 22.572 31.136C22.9013 31.136 23.1547 31.1233 23.332 31.098C23.408 31.2247 23.5093 31.4147 23.636 31.668C23.7627 31.9213 23.864 32.1493 23.94 32.352ZM9.88 24.828C10.9187 23.6627 11.9573 22.4467 12.996 21.18C14.06 19.9133 14.9973 18.7227 15.808 17.608C16.1373 17.152 16.416 16.6707 16.644 16.164C16.872 15.632 17.0747 15.1 17.252 14.568C17.4547 14.036 17.594 13.656 17.67 13.428C17.6953 13.352 17.708 13.2253 17.708 13.048C17.708 12.8453 17.6827 12.592 17.632 12.288C17.5813 11.984 17.5433 11.7687 17.518 11.642C15.6687 12.1993 13.984 13.3393 12.464 15.062C10.944 16.7847 9.74067 18.6973 8.854 20.8C7.99267 22.9027 7.54933 24.714 7.524 26.234C8.03067 26.2847 8.42333 26.196 8.702 25.968C9.006 25.74 9.39867 25.36 9.88 24.828ZM32.7352 30.072C32.4819 30.224 32.1146 30.3 31.6332 30.3C31.4559 30.3 31.2406 30.2873 30.9872 30.262C30.7339 30.2367 30.5186 30.2367 30.3412 30.262C30.5439 31.098 31.0252 31.782 31.7852 32.314C32.5452 32.8207 33.3939 33.074 34.3312 33.074C35.1419 33.074 35.8639 32.8967 36.4972 32.542C37.4346 32.0607 38.2452 31.4907 38.9292 30.832C39.4106 30.3507 39.8666 30.11 40.2972 30.11C40.5759 30.11 40.8166 30.2493 41.0192 30.528C41.2219 30.8573 41.3232 31.2627 41.3232 31.744C41.3232 32.2507 41.2219 32.6433 41.0192 32.922C40.3606 33.9353 39.4992 34.632 38.4352 35.012C37.3966 35.392 36.1806 35.582 34.7872 35.582C33.3432 35.582 31.9499 35.2653 30.6072 34.632C29.2646 33.9987 28.1119 33.1373 27.1492 32.048C26.2119 30.9333 25.5912 29.7047 25.2872 28.362C25.0846 27.5767 24.9832 26.804 24.9832 26.044C24.9832 24.8533 25.3126 23.8907 25.9712 23.156C26.6552 22.4213 27.7446 21.7247 29.2392 21.066C30.6072 20.4833 31.8739 20.192 33.0392 20.192C33.8752 20.192 34.6859 20.3187 35.4712 20.572C37.9032 21.332 39.1192 22.3707 39.1192 23.688C39.1192 24.524 38.6252 25.5373 37.6372 26.728C37.1559 27.2853 36.5859 27.7793 35.9272 28.21C35.2686 28.6407 34.6226 29.0333 33.9892 29.388C33.3812 29.7173 32.9632 29.9453 32.7352 30.072ZM34.3312 23.042C34.3059 22.9153 34.2046 22.814 34.0272 22.738C33.8752 22.6367 33.7866 22.5733 33.7612 22.548C33.0772 22.4973 32.3806 22.7 31.6712 23.156C30.9619 23.5867 30.3666 24.144 29.8852 24.828C29.4292 25.512 29.2012 26.1707 29.2012 26.804L29.2392 27.108C29.2646 27.2093 29.3912 27.336 29.6192 27.488C29.8726 27.64 30.0246 27.6907 30.0752 27.64C31.8739 26.2973 33.2292 25.2207 34.1412 24.41C34.2932 24.258 34.3692 23.9793 34.3692 23.574C34.3692 23.3207 34.3566 23.1433 34.3312 23.042ZM49.0666 31.516C48.7626 32.7573 48.2559 33.72 47.5466 34.404C46.8373 35.088 46.0013 35.43 45.0386 35.43C43.7973 35.43 42.5559 34.898 41.3146 33.834C42.2773 33.3273 42.8853 33.0233 43.1386 32.922C43.7973 32.618 44.3166 32.2 44.6966 31.668C45.1019 31.136 45.3046 30.5407 45.3046 29.882C45.3046 29.654 45.2919 29.4767 45.2666 29.35C45.1906 28.7927 45.0639 28.1973 44.8866 27.564C44.7093 26.9053 44.5953 26.4747 44.5446 26.272C44.4179 25.8413 44.2533 25.1953 44.0506 24.334C43.8986 23.7007 43.7593 23.0547 43.6326 22.396C43.5059 21.7373 43.4426 21.1547 43.4426 20.648C43.4426 19.812 43.6199 19.052 43.9746 18.368C44.3546 17.6587 44.9879 16.9873 45.8746 16.354C46.2546 16.0753 46.6853 15.8347 47.1666 15.632C47.6733 15.4293 48.1546 15.3153 48.6106 15.29C48.9399 15.2393 49.3073 15.3027 49.7126 15.48C50.1433 15.6573 50.4093 15.8727 50.5106 16.126C50.6119 16.354 50.5739 16.6833 50.3966 17.114C50.2193 17.5193 50.0039 17.8233 49.7506 18.026C48.2813 19.1153 47.5973 20.3313 47.6986 21.674C47.7493 22.434 47.9519 23.5487 48.3066 25.018C48.5599 25.9553 48.7373 26.766 48.8386 27.45C48.8639 27.6527 48.9273 28.058 49.0286 28.666C49.1553 29.274 49.2186 29.8313 49.2186 30.338C49.2186 30.794 49.1679 31.1867 49.0666 31.516ZM59.964 32.276C60.8 30.8573 61.218 29.0967 61.218 26.994C61.218 26.3607 61.1673 25.398 61.066 24.106V21.56V20.192C61.066 19.3813 61.3573 18.976 61.94 18.976C62.1427 18.976 62.3453 19.014 62.548 19.09C63.84 19.6473 64.5747 20.2427 64.752 20.876C65.3853 22.9533 65.702 24.9927 65.702 26.994C65.702 29.198 65.2967 31.3133 64.486 33.34C64.0553 34.404 63.384 35.202 62.472 35.734C61.5853 36.266 60.5973 36.532 59.508 36.532C58.1653 36.532 56.9873 36.2027 55.974 35.544C54.226 34.4293 53.2 32.8333 52.896 30.756C52.7693 29.7173 52.6553 28.9193 52.554 28.362C52.3007 26.8673 52.136 25.702 52.06 24.866C52.0347 24.2833 52.2373 23.8147 52.668 23.46C53.0987 23.08 53.618 22.89 54.226 22.89C54.454 22.89 54.682 22.928 54.91 23.004C55.8473 23.3333 56.4933 23.802 56.848 24.41C57.2027 25.018 57.3673 25.8413 57.342 26.88C57.2913 27.6907 57.266 28.2987 57.266 28.704C57.266 30.148 57.5573 31.3387 58.14 32.276C58.2413 32.4787 58.3807 32.6687 58.558 32.846C58.7353 33.0233 58.8493 33.0993 58.9 33.074C59.1027 33.0487 59.2927 32.96 59.47 32.808C59.6727 32.656 59.8373 32.4787 59.964 32.276ZM86.9645 26.082C86.9138 25.1193 86.5085 24.41 85.7485 23.954C85.1405 24.106 84.6465 24.296 84.2665 24.524C83.8865 24.752 83.6078 24.98 83.4305 25.208C83.2531 25.4107 82.9365 25.816 82.4805 26.424C82.3285 26.6267 82.1638 26.9053 81.9865 27.26C81.8345 27.6147 81.7458 27.83 81.7205 27.906C81.6445 28.0833 81.6065 28.2733 81.6065 28.476C81.6065 28.628 81.6318 28.8687 81.6825 29.198C81.7585 29.502 81.7838 29.7427 81.7585 29.92C81.7331 30.3 81.7458 30.8953 81.7965 31.706L81.8345 32.884C81.8345 33.2387 81.8218 33.5047 81.7965 33.682C81.7458 34.0873 81.6191 34.442 81.4165 34.746C81.2138 35.05 80.9351 35.202 80.5805 35.202C80.4538 35.202 80.2891 35.164 80.0865 35.088C79.9091 35.0373 79.6178 34.9487 79.2125 34.822C78.8071 34.6953 78.4905 34.5053 78.2625 34.252C78.0345 33.9733 77.9205 33.5807 77.9205 33.074C77.9205 31.7567 77.7938 29.7807 77.5405 27.146C77.4898 26.8673 77.4391 26.3987 77.3885 25.74C77.3631 25.4613 77.2365 25.246 77.0085 25.094C76.7805 24.942 76.5018 24.866 76.1725 24.866C75.6405 24.866 75.2351 25.0053 74.9565 25.284C73.7911 25.9427 72.9425 26.69 72.4105 27.526C71.8785 28.362 71.6125 29.4387 71.6125 30.756L71.6505 32.048C71.6505 32.884 71.4351 33.6567 71.0045 34.366C70.8778 34.594 70.6118 34.7967 70.2065 34.974C69.8265 35.126 69.4971 35.1767 69.2185 35.126C68.9651 35.1007 68.6991 34.936 68.4205 34.632C68.1671 34.3027 68.0405 34.0113 68.0405 33.758C67.9645 31.63 67.9265 29.5147 67.9265 27.412C67.9265 25.512 67.9518 24.0933 68.0025 23.156C68.0278 22.6747 68.1925 22.2947 68.4965 22.016C68.8005 21.7373 69.1678 21.598 69.5985 21.598C70.1558 21.598 70.6498 21.8007 71.0805 22.206C71.3085 22.6367 71.4985 22.9533 71.6505 23.156C71.8025 23.3333 71.9671 23.422 72.1445 23.422C72.2965 23.422 72.4738 23.346 72.6765 23.194C72.8791 23.0167 73.1578 22.738 73.5125 22.358C74.3485 21.446 75.2225 20.99 76.1345 20.99C77.1225 20.99 78.3131 21.484 79.7065 22.472C79.8078 22.548 79.9471 22.662 80.1245 22.814C80.3018 22.9407 80.4538 23.004 80.5805 23.004C80.7578 23.004 81.0365 22.8013 81.4165 22.396C82.8351 21.0787 84.6338 20.3567 86.8125 20.23C87.4965 20.2047 88.1805 20.4707 88.8645 21.028C89.5738 21.56 90.0171 22.206 90.1945 22.966C90.4985 24.258 90.7138 25.778 90.8405 27.526C90.9925 30.1607 91.0558 32.1367 91.0305 33.454C91.0051 34.062 90.8405 34.5433 90.5365 34.898C90.2325 35.2273 89.8398 35.392 89.3585 35.392C88.9785 35.392 88.5731 35.278 88.1425 35.05C87.9651 34.974 87.8005 34.8347 87.6485 34.632C87.4965 34.4293 87.4205 34.252 87.4205 34.1L87.1925 30.072C87.1672 29.6413 87.1418 29.0967 87.1165 28.438C87.0911 27.754 87.0405 26.9687 86.9645 26.082ZM104.141 34.062C103.913 33.9607 103.685 33.91 103.457 33.91C103.229 33.91 103.026 33.9733 102.849 34.1C102.697 34.2013 102.519 34.366 102.317 34.594C102.013 34.898 101.696 35.1513 101.367 35.354C101.063 35.5313 100.505 35.696 99.6948 35.848C99.3401 35.8987 99.0488 35.924 98.8208 35.924C97.7568 35.924 96.6421 35.696 95.4768 35.24C94.3368 34.7587 93.5261 34.1887 93.0448 33.53C92.5381 32.8207 92.2974 32.0607 92.3228 31.25C92.3481 30.034 92.8548 28.818 93.8428 27.602C94.8054 26.4367 95.6794 25.6133 96.4648 25.132C97.2754 24.6507 98.3774 24.3467 99.7708 24.22C100.075 24.22 100.505 24.1693 101.063 24.068C101.645 23.9667 101.937 23.8273 101.937 23.65C101.937 23.2953 101.772 22.9787 101.443 22.7C101.139 22.396 100.505 22.244 99.5428 22.244C99.1881 22.244 98.6561 22.2693 97.9468 22.32C97.2374 22.3707 96.7434 22.396 96.4648 22.396C95.6034 22.396 94.9828 22.2567 94.6028 21.978C94.5014 21.9273 94.4508 21.6867 94.4508 21.256C94.4508 20.496 94.7168 20.0147 95.2488 19.812C96.3381 19.4067 97.4654 19.1913 98.6308 19.166C100.1 19.166 101.455 19.4953 102.697 20.154C103.963 20.7873 104.888 21.5853 105.471 22.548C106.053 23.5107 106.433 24.8407 106.611 26.538C106.813 28.438 106.915 30.8573 106.915 33.796C106.915 34.6067 106.801 35.0753 106.573 35.202C106.37 35.3287 106.18 35.392 106.003 35.392C105.775 35.392 105.559 35.3287 105.357 35.202C105.179 35.05 104.977 34.8473 104.749 34.594C104.521 34.3153 104.318 34.138 104.141 34.062ZM98.1368 33.606C99.3274 33.2513 100.493 32.6813 101.633 31.896C101.886 31.7187 102.114 31.4907 102.317 31.212C102.519 30.9333 102.646 30.756 102.697 30.68C102.747 30.604 102.785 30.3887 102.811 30.034C102.861 29.654 102.874 29.35 102.849 29.122C102.823 29.046 102.773 28.8433 102.697 28.514C102.646 28.1847 102.557 27.8933 102.431 27.64C102.304 27.4373 102.101 27.2473 101.823 27.07C101.544 26.8927 101.291 26.8167 101.063 26.842C100.581 26.8673 100.062 27.0447 99.5048 27.374C98.9474 27.7033 98.4281 28.1467 97.9468 28.704C97.4654 29.2867 97.0854 29.882 96.8068 30.49C96.5534 31.0727 96.4268 31.6173 96.4268 32.124C96.4774 32.808 96.6674 33.264 96.9968 33.492C97.1741 33.6187 97.3894 33.682 97.6428 33.682C97.8454 33.682 98.0101 33.6567 98.1368 33.606ZM117.303 16.962C117.43 16.9113 117.708 16.8733 118.139 16.848C118.595 16.7973 119 16.772 119.355 16.772C120.064 16.772 120.71 17.2153 121.293 18.102L120.799 18.482C120.216 18.9127 119.38 19.242 118.291 19.47C117.328 19.9513 116.606 20.3567 116.125 20.686C115.669 21.0153 115.327 21.3827 115.099 21.788C114.896 22.1933 114.795 22.7127 114.795 23.346C114.795 23.65 114.871 24.4353 115.023 25.702L115.213 27.298C115.416 29.2487 115.593 30.68 115.745 31.592C115.796 31.9213 115.897 32.314 116.049 32.77C116.226 33.2007 116.404 33.454 116.581 33.53C116.758 33.606 117.113 33.4793 117.645 33.15C118.658 31.934 119.317 31.0853 119.621 30.604C119.697 30.4773 119.824 30.262 120.001 29.958C120.178 29.654 120.356 29.426 120.533 29.274C120.71 29.0967 120.926 29.008 121.179 29.008C121.23 29.008 121.356 29.0333 121.559 29.084C121.964 29.2107 122.281 29.4007 122.509 29.654C122.762 29.9073 122.889 30.2747 122.889 30.756C122.889 30.984 122.876 31.1487 122.851 31.25C122.699 32.2633 122.344 33.1753 121.787 33.986C121.23 34.7967 120.495 35.5947 119.583 36.38C119.228 36.7093 118.646 36.874 117.835 36.874C116.948 36.874 116.074 36.6713 115.213 36.266C114.352 35.886 113.769 35.3793 113.465 34.746C112.68 33.0487 111.945 30.8827 111.261 28.248C111.084 27.5133 110.944 26.348 110.843 24.752L110.729 23.346C110.678 22.7633 110.678 22.32 110.729 22.016C110.78 21.6867 110.286 21.484 109.247 21.408C108.867 21.3827 108.677 21.1293 108.677 20.648C108.93 19.8373 109.323 19.356 109.855 19.204C110.362 19.052 110.678 18.7353 110.805 18.254C110.932 17.7473 111.033 17.228 111.109 16.696C111.337 15.0493 111.388 13.2127 111.261 11.186C111.21 10.2233 111.502 9.666 112.135 9.514L112.477 9.552C112.604 9.57733 112.895 9.628 113.351 9.704C113.807 9.75466 114.212 9.86866 114.567 10.046C115.454 10.5273 115.897 11.376 115.897 12.592C115.897 13.0987 115.796 13.7573 115.593 14.568C115.568 14.6947 115.53 14.8087 115.479 14.91C115.428 15.0113 115.39 15.1253 115.365 15.252C115.289 15.632 115.251 15.9487 115.251 16.202C115.023 16.962 115.2 17.342 115.783 17.342C115.986 17.342 116.492 17.2153 117.303 16.962ZM129.107 21.18C129.335 21.1547 129.525 21.1547 129.677 21.18C129.829 21.18 129.968 21.18 130.095 21.18C130.272 21.1547 130.538 21.142 130.893 21.142C132.616 21.142 134.313 21.636 135.985 22.624C136.72 23.08 137.087 23.5613 137.087 24.068C137.087 24.6253 136.707 25.1193 135.947 25.55C135.314 25.93 134.655 26.3733 133.971 26.88C132.755 27.6907 131.716 28.324 130.855 28.78C130.019 29.236 129.094 29.5527 128.081 29.73C127.929 29.7807 127.764 29.92 127.587 30.148C127.435 30.3507 127.372 30.5027 127.397 30.604C127.448 30.756 127.536 31.0727 127.663 31.554C127.79 32.01 127.929 32.4027 128.081 32.732C128.258 33.036 128.461 33.2893 128.689 33.492C128.942 33.6947 129.322 33.796 129.829 33.796C130.336 33.796 130.804 33.72 131.235 33.568C132.755 32.8587 134.199 31.972 135.567 30.908C135.972 30.6293 136.327 30.49 136.631 30.49C137.011 30.49 137.416 30.6927 137.847 31.098C138.151 31.3767 138.303 31.668 138.303 31.972C138.303 32.3013 138.062 32.7067 137.581 33.188C135.428 35.2907 133.135 36.342 130.703 36.342C130.044 36.342 129.234 36.2153 128.271 35.962C126.65 35.5567 125.408 34.6573 124.547 33.264C123.686 31.8707 123.255 30.2747 123.255 28.476C123.255 27.9187 123.293 27.3867 123.369 26.88C123.394 26.7027 123.445 26.3353 123.521 25.778C123.622 25.1953 123.774 24.714 123.977 24.334C124.94 22.434 126.65 21.3827 129.107 21.18ZM131.311 23.916C130.855 23.764 130.45 23.688 130.095 23.688C129.512 23.688 129.056 23.8653 128.727 24.22C128.398 24.5747 128.132 25.1067 127.929 25.816C128.537 25.892 129.183 25.74 129.867 25.36C130.576 24.9547 131.058 24.4733 131.311 23.916ZM141.896 36.836C139.768 36.836 138.413 35.924 137.83 34.1C138.033 34.1 138.299 34.1127 138.628 34.138C138.983 34.138 139.274 34.1633 139.502 34.214C139.857 34.2647 140.11 34.29 140.262 34.29C141.402 34.29 142.352 33.7833 143.112 32.77C143.644 32.0353 143.91 31.288 143.91 30.528C143.91 30.0213 143.783 29.5273 143.53 29.046C142.973 28.058 142.289 26.9687 141.478 25.778C140.946 24.9927 140.465 24.2453 140.034 23.536C139.527 22.7253 139.274 21.826 139.274 20.838C139.274 19.926 139.527 19.128 140.034 18.444C140.566 17.7347 141.339 17.2913 142.352 17.114L143.568 16.886C144.885 16.6327 145.873 16.506 146.532 16.506C147.621 16.506 148.584 16.7593 149.42 17.266C149.597 17.3927 149.775 17.6207 149.952 17.95C150.155 18.254 150.307 18.4947 150.408 18.672C150.231 18.748 149.977 18.8747 149.648 19.052C149.344 19.204 149.078 19.2927 148.85 19.318C148.495 19.3687 147.963 19.394 147.254 19.394C146.57 19.394 146.051 19.4067 145.696 19.432C144.885 19.508 144.239 19.7867 143.758 20.268C143.302 20.724 143.074 21.2813 143.074 21.94C143.074 22.4467 143.226 22.966 143.53 23.498C144.214 24.638 145.164 25.9427 146.38 27.412C147.292 28.552 147.748 29.73 147.748 30.946C147.748 31.6047 147.596 32.3013 147.292 33.036C146.253 35.5693 144.455 36.836 141.896 36.836Z" fill="#4C5B92"/>
</svg>
